<?xml version="1.0" standalone="no"?>
<!DOCTYPE svg PUBLIC "-//W3C//DTD SVG 20010904//EN"
 "http://www.w3.org/TR/2001/REC-SVG-20010904/DTD/svg10.dtd">
<svg version="1.0" xmlns="http://www.w3.org/2000/svg"
 width="181.000000pt" height="181.000000pt" viewBox="0 0 181.000000 181.000000"
 preserveAspectRatio="xMidYMid meet">
<metadata>
Created by potrace 1.14, written by Peter Selinger 2001-2017
</metadata>
<g transform="translate(0.000000,181.000000) scale(0.100000,-0.100000)"
fill="#000000" stroke="none">
<path d="M741 1714 c-250 -60 -435 -247 -486 -491 -14 -66 -14 -209 0 -263 3
-14 7 -29 9 -35 13 -53 52 -141 66 -150 15 -9 70 4 70 17 0 5 -8 22 -18 36
-37 56 -62 147 -66 247 -6 152 49 295 156 405 71 72 106 100 125 100 7 0 13 5
13 11 0 5 5 7 10 4 6 -3 10 -2 10 3 0 5 35 19 77 32 77 23 194 30 275 17 52
-8 163 -54 212 -88 63 -43 146 -127 146 -148 0 -5 3 -11 8 -13 10 -4 48 -83
68 -143 21 -61 27 -208 13 -278 -6 -29 -26 -84 -44 -124 -33 -71 -33 -71 -11
-77 44 -12 53 -6 79 52 40 88 58 169 57 262 0 93 -1 107 -26 189 -10 31 -17
59 -16 64 1 4 -3 7 -10 7 -6 0 -9 3 -5 6 5 6 -42 90 -73 128 -124 153 -292
237 -485 241 -57 2 -123 -3 -154 -11z"/>
<path d="M618 1066 c-58 -21 -61 -117 -4 -144 77 -38 149 53 96 120 -23 30
-54 38 -92 24z"/>
<path d="M1069 1062 c-71 -36 -54 -132 27 -147 71 -14 121 92 63 133 -40 29
-56 31 -90 14z"/>
<path d="M435 715 c-85 -15 -98 -19 -155 -39 -25 -9 -52 -18 -60 -20 -9 -2
-33 -13 -53 -25 -20 -11 -37 -17 -37 -13 0 4 -4 1 -9 -6 -4 -7 -9 -40 -10 -72
-2 -65 3 -69 52 -51 19 8 24 16 22 39 -2 26 2 31 59 55 86 36 121 46 216 64
65 12 215 6 297 -12 l83 -18 2 -261 3 -261 33 -3 c38 -4 34 -34 33 288 0 113
2 213 5 222 3 9 19 20 37 24 18 4 37 9 42 10 162 39 353 17 538 -60 33 -14 37
-20 37 -51 0 -36 1 -36 56 -39 16 -1 20 31 15 105 -2 25 -188 103 -270 114
-20 2 -49 8 -66 13 -41 12 -261 8 -310 -6 -22 -6 -55 -14 -74 -17 -19 -3 -37
-7 -40 -9 -3 -2 -40 5 -81 16 -92 24 -266 30 -365 13z"/>
<path d="M148 410 c-35 -10 -85 -65 -99 -107 -27 -82 24 -176 109 -204 60 -20
149 12 182 65 82 133 -42 291 -192 246z m104 -76 c5 -3 18 -20 28 -36 14 -23
16 -37 9 -61 -25 -87 -133 -93 -168 -9 -24 58 27 121 92 115 16 -2 33 -6 39
-9z"/>
<path d="M1485 404 c-64 -33 -95 -82 -95 -150 0 -132 161 -208 263 -124 32 27
58 78 58 117 1 56 -4 71 -35 110 -48 60 -129 80 -191 47z m130 -87 c61 -65 -4
-169 -90 -146 -32 9 -65 53 -65 86 2 77 103 116 155 60z"/>
</g>
</svg>
